# xmcd
#
# Track frame offsets:
# 150
# 11572
# 35785
# 44907
# 59600
# 71310
# 89495
# 100857
# 129685
# 146865
# 165880
# 188850
# 206630
# 222857
# 236065
# 249222
#
# Disc length: 3531 seconds
#
# Revision: 0
# Processed by: cddbd v1.4PL0 Copyright (c) Steve Scherf et al.
# Submitted via: MacMP3 Pro 5.0 (http://mp3.act2.co.jp/)
#
DISCID=ef0dc910
DTITLE=àªåÀíqäG - LOVE
DYEAR=1900
DGENRE=
TTITLE0=Blues Skies
TTITLE1=The Rose
TTITLE2=Moon River
TTITLE3=The End Of The World
TTITLE4=Day Tripper
TTITLE5=His Eye Is On A Sparrow
TTITLE6=Work Song
TTITLE7=Leaving On A Jet Plane
TTITLE8=Can,t Help Fatling In Love
TTITLE9=By TheTime I Get To Phoenix
TTITLE10=Ç«ÇÒÇ»Ç?Ç´Ç?
TTITLE11=Just Squeeze Me
TTITLE12=My Funny Valentine
TTITLE13=Danny Boy
TTITLE14=L-O-V-E
TTITLE15=Love
EXTD=
EXTT0=
EXTT1=
EXTT2=
EXTT3=
EXTT4=
EXTT5=
EXTT6=
EXTT7=
EXTT8=
EXTT9=
EXTT10=
EXTT11=
EXTT12=
EXTT13=
EXTT14=
EXTT15=
PLAYORDER=
